<svg data-v-423bf9ae="" xmlns="http://www.w3.org/2000/svg" viewBox="0 0 530 90" class="iconLeft"><!----><!----><!----><g data-v-423bf9ae="" id="ebbcc2d1-493c-4459-b4b0-9b281611133f" fill="white" transform="matrix(4.735595867300924,0,0,4.735595867300924,118.64342782139141,4.723755652985382)"><path d="M5.04 12.46L5.04 12.46Q3.11 12.46 2.05 11.52L2.05 11.52L2.05 11.52Q0.99 10.58 0.99 8.74L0.99 8.74L0.99 2.69L2.79 2.69L2.79 8.69L2.79 8.69Q2.79 9.80 3.37 10.37L3.37 10.37L3.37 10.37Q3.96 10.95 5.04 10.95L5.04 10.95L5.04 10.95Q6.12 10.95 6.72 10.37L6.72 10.37L6.72 10.37Q7.32 9.80 7.32 8.69L7.32 8.69L7.32 2.69L9.11 2.69L9.11 8.74L9.11 8.74Q9.11 10.58 8.05 11.52L8.05 11.52L8.05 11.52Q6.99 12.46 5.04 12.46L5.04 12.46ZM13.87 12.46L13.87 12.46Q12.35 12.46 11.52 11.83L11.52 11.83L11.52 11.83Q10.68 11.20 10.68 10.19L10.68 10.19L10.68 10.19Q10.68 10.07 10.69 10.02L10.69 10.02L10.69 10.02Q10.70 9.98 10.70 9.97L10.70 9.97L12.33 9.97L12.33 10.08L12.33 10.08Q12.35 10.63 12.80 10.88L12.80 10.88L12.80 10.88Q13.26 11.14 13.94 11.14L13.94 11.14L13.94 11.14Q14.56 11.14 14.99 10.94L14.99 10.94L14.99 10.94Q15.43 10.74 15.43 10.33L15.43 10.33L15.43 10.33Q15.43 10.01 15.19 9.81L15.19 9.81L15.19 9.81Q14.95 9.60 14.60 9.48L14.60 9.48L14.60 9.48Q14.25 9.37 13.61 9.21L13.61 9.21L13.61 9.21Q12.74 9.00 12.19 8.79L12.19 8.79L12.19 8.79Q11.63 8.58 11.24 8.13L11.24 8.13L11.24 8.13Q10.85 7.69 10.85 6.96L10.85 6.96L10.85 6.96Q10.85 5.91 11.72 5.33L11.72 5.33L11.72 5.33Q12.59 4.76 13.97 4.76L13.97 4.76L13.97 4.76Q14.83 4.76 15.50 5.01L15.50 5.01L15.50 5.01Q16.17 5.26 16.54 5.72L16.54 5.72L16.54 5.72Q16.91 6.17 16.91 6.76L16.91 6.76L16.90 7.07L15.26 7.07L15.26 7.01L15.26 7.01Q15.26 6.58 14.90 6.33L14.90 6.33L14.90 6.33Q14.55 6.09 13.87 6.09L13.87 6.09L13.87 6.09Q13.22 6.09 12.88 6.29L12.88 6.29L12.88 6.29Q12.54 6.50 12.54 6.82L12.54 6.82L12.54 6.82Q12.54 7.21 12.96 7.40L12.96 7.40L12.96 7.40Q13.37 7.59 14.22 7.77L14.22 7.77L14.22 7.77Q15.15 7.98 15.71 8.20L15.71 8.20L15.71 8.20Q16.28 8.41 16.70 8.88L16.70 8.88L16.70 8.88Q17.12 9.34 17.12 10.12L17.12 10.12L17.12 10.12Q17.12 11.34 16.25 11.90L16.25 11.90L16.25 11.90Q15.37 12.46 13.87 12.46L13.87 12.46ZM20.40 12.46L20.40 12.46Q19.50 12.46 18.78 12.02L18.78 12.02L18.78 12.02Q18.06 11.58 18.06 10.39L18.06 10.39L18.06 10.39Q18.06 8.97 19.26 8.40L19.26 8.40L19.26 8.40Q20.47 7.83 22.68 7.83L22.68 7.83L22.68 7.21L22.68 7.21Q22.68 6.68 22.41 6.38L22.41 6.38L22.41 6.38Q22.13 6.09 21.42 6.09L21.42 6.09L21.42 6.09Q20.68 6.09 20.37 6.33L20.37 6.33L20.37 6.33Q20.06 6.57 20.06 6.92L20.06 6.92L20.06 7.11L18.44 7.11L18.44 7.11Q18.42 7.03 18.42 6.80L18.42 6.80L18.42 6.80Q18.42 5.85 19.24 5.31L19.24 5.31L19.24 5.31Q20.06 4.76 21.42 4.76L21.42 4.76L21.42 4.76Q22.89 4.76 23.63 5.36L23.63 5.36L23.63 5.36Q24.36 5.96 24.36 7.08L24.36 7.08L24.36 10.60L24.36 10.60Q24.36 10.85 24.50 10.97L24.50 10.97L24.50 10.97Q24.64 11.09 24.85 11.09L24.85 11.09L25.30 11.09L25.30 12.24L25.30 12.24Q24.85 12.45 24.25 12.45L24.25 12.45L24.25 12.45Q23.70 12.45 23.34 12.18L23.34 12.18L23.34 12.18Q22.97 11.91 22.85 11.45L22.85 11.45L22.75 11.45L22.75 11.45Q21.92 12.46 20.40 12.46L20.40 12.46ZM20.90 11.12L20.90 11.12Q21.73 11.12 22.20 10.64L22.20 10.64L22.20 10.64Q22.68 10.16 22.68 9.35L22.68 9.35L22.68 9.02L22.68 9.02Q21.32 9.02 20.55 9.28L20.55 9.28L20.55 9.28Q19.78 9.53 19.78 10.22L19.78 10.22L19.78 10.22Q19.78 11.12 20.90 11.12L20.90 11.12ZM27.61 14.84L27.61 14.84Q26.82 14.84 26.27 14.38L26.27 14.38L26.27 14.38Q25.72 13.93 25.72 13.12L25.72 13.12L25.72 13.12Q25.72 12.11 26.87 11.59L26.87 11.59L26.87 11.59Q26.53 11.41 26.33 11.13L26.33 11.13L26.33 11.13Q26.14 10.85 26.14 10.47L26.14 10.47L26.14 10.47Q26.14 9.98 26.51 9.66L26.51 9.66L26.51 9.66Q26.88 9.34 27.41 9.21L27.41 9.21L27.41 9.21Q26.91 8.89 26.64 8.39L26.64 8.39L26.64 8.39Q26.36 7.88 26.36 7.25L26.36 7.25L26.36 7.25Q26.36 6.09 27.20 5.42L27.20 5.42L27.20 5.42Q28.03 4.76 29.53 4.76L29.53 4.76L29.53 4.76Q30.37 4.76 30.98 4.98L30.98 4.98L30.98 4.98Q31.43 4.72 31.64 4.38L31.64 4.38L31.64 4.38Q31.85 4.03 31.88 3.71L31.88 3.71L33.50 3.71L33.50 3.71Q33.50 4.44 33.10 4.91L33.10 4.91L33.10 4.91Q32.69 5.39 31.98 5.54L31.98 5.54L31.98 5.54Q32.70 6.23 32.70 7.25L32.70 7.25L32.70 7.25Q32.70 8.41 31.89 9.09L31.89 9.09L31.89 9.09Q31.08 9.76 29.61 9.76L29.61 9.76L28.46 9.76L28.46 9.76Q28.17 9.76 28 9.88L28 9.88L28 9.88Q27.83 10.01 27.83 10.23L27.83 10.23L27.83 10.23Q27.83 10.44 27.99 10.58L27.99 10.58L27.99 10.58Q28.14 10.71 28.41 10.71L28.41 10.71L31.63 10.71L31.63 10.71Q32.45 10.71 32.98 11.25L32.98 11.25L32.98 11.25Q33.52 11.79 33.52 12.61L33.52 12.61L33.52 12.61Q33.52 13.23 33.19 13.74L33.19 13.74L33.19 13.74Q32.87 14.25 32.28 14.55L32.28 14.55L32.28 14.55Q31.68 14.84 30.91 14.84L30.91 14.84L27.61 14.84ZM29.54 8.57L29.54 8.57Q30.28 8.57 30.66 8.22L30.66 8.22L30.66 8.22Q31.04 7.88 31.04 7.25L31.04 7.25L31.04 7.25Q31.04 6.62 30.66 6.28L30.66 6.28L30.66 6.28Q30.28 5.94 29.54 5.94L29.54 5.94L29.54 5.94Q28.80 5.94 28.42 6.28L28.42 6.28L28.42 6.28Q28.04 6.62 28.04 7.25L28.04 7.25L28.04 7.25Q28.04 7.90 28.42 8.23L28.42 8.23L28.42 8.23Q28.80 8.57 29.54 8.57L29.54 8.57ZM28.20 13.62L30.91 13.62L30.91 13.62Q31.30 13.62 31.57 13.42L31.57 13.42L31.57 13.42Q31.84 13.22 31.84 12.88L31.84 12.88L31.84 12.88Q31.84 12.53 31.61 12.33L31.61 12.33L31.61 12.33Q31.39 12.14 31.02 12.14L31.02 12.14L28.20 12.14L28.20 12.14Q27.85 12.14 27.63 12.35L27.63 12.35L27.63 12.35Q27.41 12.56 27.41 12.88L27.41 12.88L27.41 12.88Q27.41 13.22 27.63 13.42L27.63 13.42L27.63 13.42Q27.85 13.62 28.20 13.62L28.20 13.62ZM37.74 12.46L37.74 12.46Q35.95 12.46 35.08 11.52L35.08 11.52L35.08 11.52Q34.22 10.58 34.22 8.61L34.22 8.61L34.22 8.61Q34.22 6.64 35.09 5.70L35.09 5.70L35.09 5.70Q35.97 4.76 37.74 4.76L37.74 4.76L37.74 4.76Q39.37 4.76 40.17 5.67L40.17 5.67L40.17 5.67Q40.98 6.58 40.98 8.51L40.98 8.51L40.98 9.02L35.92 9.02L35.92 9.02Q35.97 10.11 36.39 10.62L36.39 10.62L36.39 10.62Q36.82 11.13 37.76 11.13L37.76 11.13L37.76 11.13Q38.46 11.13 38.89 10.77L38.89 10.77L38.89 10.77Q39.33 10.42 39.33 9.72L39.33 9.72L40.98 9.72L40.98 9.72Q40.98 11.07 40.08 11.77L40.08 11.77L40.08 11.77Q39.19 12.46 37.74 12.46L37.74 12.46ZM35.95 7.83L39.23 7.83L39.23 7.83Q39.23 6.09 37.74 6.09L37.74 6.09L37.74 6.09Q36.90 6.09 36.48 6.52L36.48 6.52L36.48 6.52Q36.05 6.94 35.95 7.83L35.95 7.83ZM46.37 12.29L46.37 2.69L50.99 2.69L50.99 2.69Q52.53 2.69 53.33 3.50L53.33 3.50L53.33 3.50Q54.12 4.31 54.12 5.75L54.12 5.75L54.12 5.75Q54.12 7.20 53.29 8.03L53.29 8.03L53.29 8.03Q52.46 8.86 50.89 8.86L50.89 8.86L48.16 8.86L48.16 12.29L46.37 12.29ZM48.16 7.34L50.83 7.34L50.83 7.34Q51.53 7.34 51.93 6.92L51.93 6.92L51.93 6.92Q52.32 6.50 52.32 5.75L52.32 5.75L52.32 5.75Q52.32 5.03 51.94 4.62L51.94 4.62L51.94 4.62Q51.56 4.21 50.83 4.21L50.83 4.21L48.16 4.21L48.16 7.34ZM57.48 12.46L57.48 12.46Q56.59 12.46 55.87 12.02L55.87 12.02L55.87 12.02Q55.15 11.58 55.15 10.39L55.15 10.39L55.15 10.39Q55.15 8.97 56.35 8.40L56.35 8.40L56.35 8.40Q57.55 7.83 59.77 7.83L59.77 7.83L59.77 7.21L59.77 7.21Q59.77 6.68 59.49 6.38L59.49 6.38L59.49 6.38Q59.22 6.09 58.51 6.09L58.51 6.09L58.51 6.09Q57.76 6.09 57.46 6.33L57.46 6.33L57.46 6.33Q57.15 6.57 57.15 6.92L57.15 6.92L57.15 7.11L55.52 7.11L55.52 7.11Q55.51 7.03 55.51 6.80L55.51 6.80L55.51 6.80Q55.51 5.85 56.33 5.31L56.33 5.31L56.33 5.31Q57.15 4.76 58.51 4.76L58.51 4.76L58.51 4.76Q59.98 4.76 60.71 5.36L60.71 5.36L60.71 5.36Q61.45 5.96 61.45 7.08L61.45 7.08L61.45 10.60L61.45 10.60Q61.45 10.85 61.59 10.97L61.59 10.97L61.59 10.97Q61.73 11.09 61.94 11.09L61.94 11.09L62.38 11.09L62.38 12.24L62.38 12.24Q61.94 12.45 61.33 12.45L61.33 12.45L61.33 12.45Q60.79 12.45 60.42 12.18L60.42 12.18L60.42 12.18Q60.06 11.91 59.93 11.45L59.93 11.45L59.84 11.45L59.84 11.45Q59.01 12.46 57.48 12.46L57.48 12.46ZM57.99 11.12L57.99 11.12Q58.81 11.12 59.29 10.64L59.29 10.64L59.29 10.64Q59.77 10.16 59.77 9.35L59.77 9.35L59.77 9.02L59.77 9.02Q58.41 9.02 57.64 9.28L57.64 9.28L57.64 9.28Q56.87 9.53 56.87 10.22L56.87 10.22L56.87 10.22Q56.87 11.12 57.99 11.12L57.99 11.12ZM63.48 12.29L63.48 4.93L64.86 4.93L65.00 5.91L65.10 5.91L65.10 5.91Q65.51 5.36 66.10 5.06L66.10 5.06L66.10 5.06Q66.70 4.76 67.47 4.76L67.47 4.76L67.47 4.76Q68.59 4.76 69.22 5.37L69.22 5.37L69.22 5.37Q69.85 5.98 69.85 7.32L69.85 7.32L69.85 12.29L68.17 12.29L68.17 7.62L68.17 7.62Q68.17 6.86 67.82 6.54L67.82 6.54L67.82 6.54Q67.48 6.22 66.81 6.22L66.81 6.22L66.81 6.22Q66.11 6.22 65.63 6.72L65.63 6.72L65.63 6.72Q65.16 7.22 65.16 8.01L65.16 8.01L65.16 12.29L63.48 12.29ZM74.23 12.46L74.23 12.46Q72.83 12.46 72.06 11.51L72.06 11.51L72.06 11.51Q71.29 10.56 71.29 8.60L71.29 8.60L71.29 8.60Q71.29 6.69 72.06 5.73L72.06 5.73L72.06 5.73Q72.83 4.76 74.12 4.76L74.12 4.76L74.12 4.76Q75.66 4.76 76.33 5.78L76.33 5.78L76.41 5.78L76.41 2.17L78.09 2.17L78.09 12.29L76.71 12.29L76.57 11.31L76.48 11.31L76.48 11.31Q76.12 11.87 75.53 12.17L75.53 12.17L75.53 12.17Q74.94 12.46 74.23 12.46L74.23 12.46ZM74.73 11.02L74.73 11.02Q75.60 11.02 76.01 10.44L76.01 10.44L76.01 10.44Q76.41 9.86 76.41 8.71L76.41 8.71L76.41 8.54L76.41 8.54Q76.41 6.20 74.73 6.20L74.73 6.20L74.73 6.20Q73.81 6.20 73.42 6.75L73.42 6.75L73.42 6.75Q73.02 7.31 73.02 8.53L73.02 8.53L73.02 8.71L73.02 8.71Q73.02 9.91 73.42 10.46L73.42 10.46L73.42 10.46Q73.81 11.02 74.73 11.02L74.73 11.02ZM81.84 12.46L81.84 12.46Q80.95 12.46 80.23 12.02L80.23 12.02L80.23 12.02Q79.51 11.58 79.51 10.39L79.51 10.39L79.51 10.39Q79.51 8.97 80.71 8.40L80.71 8.40L80.71 8.40Q81.91 7.83 84.13 7.83L84.13 7.83L84.13 7.21L84.13 7.21Q84.13 6.68 83.85 6.38L83.85 6.38L83.85 6.38Q83.58 6.09 82.87 6.09L82.87 6.09L82.87 6.09Q82.12 6.09 81.82 6.33L81.82 6.33L81.82 6.33Q81.51 6.57 81.51 6.92L81.51 6.92L81.51 7.11L79.88 7.11L79.88 7.11Q79.87 7.03 79.87 6.80L79.87 6.80L79.87 6.80Q79.87 5.85 80.69 5.31L80.69 5.31L80.69 5.31Q81.51 4.76 82.87 4.76L82.87 4.76L82.87 4.76Q84.34 4.76 85.07 5.36L85.07 5.36L85.07 5.36Q85.81 5.96 85.81 7.08L85.81 7.08L85.81 10.60L85.81 10.60Q85.81 10.85 85.95 10.97L85.95 10.97L85.95 10.97Q86.09 11.09 86.30 11.09L86.30 11.09L86.74 11.09L86.74 12.24L86.74 12.24Q86.30 12.45 85.69 12.45L85.69 12.45L85.69 12.45Q85.15 12.45 84.78 12.18L84.78 12.18L84.78 12.18Q84.42 11.91 84.29 11.45L84.29 11.45L84.20 11.45L84.20 11.45Q83.37 12.46 81.84 12.46L81.84 12.46ZM82.35 11.12L82.35 11.12Q83.17 11.12 83.65 10.64L83.65 10.64L83.65 10.64Q84.13 10.16 84.13 9.35L84.13 9.35L84.13 9.02L84.13 9.02Q82.77 9.02 82.00 9.28L82.00 9.28L82.00 9.28Q81.23 9.53 81.23 10.22L81.23 10.22L81.23 10.22Q81.23 11.12 82.35 11.12L82.35 11.12Z"></path></g><!----><g data-v-423bf9ae="" id="01f90346-2279-4741-ad47-bec0a8526e11" transform="matrix(1.1820951734280307,0,0,1.1820951734280307,-6.811755068147676,-14.309330671270104)" stroke="none" fill="white"><path d="M50 88.818c-22.017 0-39.929-16.965-39.929-37.817S27.983 13.184 50 13.184s39.929 16.964 39.929 37.817S72.017 88.818 50 88.818zm0-72.634c-20.363 0-36.929 15.619-36.929 34.817S29.637 85.818 50 85.818c20.362 0 36.929-15.619 36.929-34.817S70.362 16.184 50 16.184z"></path><circle cx="35.289" cy="47.294" r="12.457"></circle><circle cx="65.131" cy="47.294" r="12.457"></circle><circle cx="50" cy="62.706" r="2.956"></circle><path d="M16.287 12.682c5.416 0 9.815 4.311 9.979 9.688-4.054 2.77-7.513 6.266-10.163 10.292-5.434-.099-9.81-4.527-9.81-9.985 0-5.521 4.474-9.995 9.994-9.995zM83.713 12.682c-5.416 0-9.815 4.311-9.979 9.688 4.054 2.77 7.513 6.266 10.163 10.292 5.434-.099 9.81-4.527 9.81-9.985 0-5.521-4.474-9.995-9.994-9.995z"></path></g><!----></svg>